<?xml version="1.0" encoding="UTF-8" standalone="no"?>
<!DOCTYPE svg PUBLIC "-//W3C//DTD SVG 1.1//EN"
 "http://www.w3.org/Graphics/SVG/1.1/DTD/svg11.dtd">
<!-- Generated by graphviz version 3.0.0 (20220226.1711)
 -->
<!-- Title: G Pages: 1 -->
<svg width="392pt" height="260pt"
 viewBox="0.00 0.00 392.00 260.00" xmlns="http://www.w3.org/2000/svg" xmlns:xlink="http://www.w3.org/1999/xlink">
<g id="graph0" class="graph" transform="scale(1 1) rotate(0) translate(4 256)">
<title>G</title>
<polygon fill="white" stroke="transparent" points="-4,4 -4,-256 388,-256 388,4 -4,4"/>
<!-- example_tab1 -->
<g id="node1" class="node">
<title>example_tab1</title>
<polygon fill="#76ee00" stroke="black" points="265.5,-252 175.5,-252 175.5,-216 265.5,-216 265.5,-252"/>
<text text-anchor="middle" x="220.5" y="-230.3" font-family="Times New Roman,serif" font-size="14.00">example.tab1</text>
</g>
<!-- example_tab10 -->
<g id="node2" class="node">
<title>example_tab10</title>
<polygon fill="#76ee00" stroke="black" points="154,-180 57,-180 57,-144 154,-144 154,-180"/>
<text text-anchor="middle" x="105.5" y="-158.3" font-family="Times New Roman,serif" font-size="14.00">example.tab10</text>
</g>
<!-- example_tab10&#45;&gt;example_tab1 -->
<g id="edge1" class="edge">
<title>example_tab10&#45;&gt;example_tab1</title>
<path fill="none" stroke="#76ee00" d="M133.63,-180.12C148.67,-189.28 167.37,-200.66 183.56,-210.52"/>
<polygon fill="#76ee00" stroke="#76ee00" points="181.9,-213.6 192.26,-215.81 185.54,-207.62 181.9,-213.6"/>
</g>
<!-- example_tab11 -->
<g id="node3" class="node">
<title>example_tab11</title>
<polygon fill="none" stroke="black" points="269,-180 172,-180 172,-144 269,-144 269,-180"/>
<text text-anchor="middle" x="220.5" y="-158.3" font-family="Times New Roman,serif" font-size="14.00">example.tab11</text>
</g>
<!-- example_tab11&#45;&gt;example_tab1 -->
<g id="edge2" class="edge">
<title>example_tab11&#45;&gt;example_tab1</title>
<path fill="none" stroke="black" d="M220.5,-180.3C220.5,-188.02 220.5,-197.29 220.5,-205.89"/>
<polygon fill="black" stroke="black" points="217,-205.9 220.5,-215.9 224,-205.9 217,-205.9"/>
</g>
<!-- example_tab12 -->
<g id="node4" class="node">
<title>example_tab12</title>
<polygon fill="#76ee00" stroke="black" points="384,-180 287,-180 287,-144 384,-144 384,-180"/>
<text text-anchor="middle" x="335.5" y="-158.3" font-family="Times New Roman,serif" font-size="14.00">example.tab12</text>
</g>
<!-- example_tab12&#45;&gt;example_tab1 -->
<g id="edge3" class="edge">
<title>example_tab12&#45;&gt;example_tab1</title>
<path fill="none" stroke="#76ee00" d="M307.37,-180.12C292.33,-189.28 273.63,-200.66 257.44,-210.52"/>
<polygon fill="#76ee00" stroke="#76ee00" points="255.46,-207.62 248.74,-215.81 259.1,-213.6 255.46,-207.62"/>
</g>
<!-- example_tab20 -->
<g id="node5" class="node">
<title>example_tab20</title>
<polygon fill="none" stroke="black" points="97,-108 0,-108 0,-72 97,-72 97,-108"/>
<text text-anchor="middle" x="48.5" y="-86.3" font-family="Times New Roman,serif" font-size="14.00">example.tab20</text>
</g>
<!-- example_tab20&#45;&gt;example_tab10 -->
<g id="edge4" class="edge">
<title>example_tab20&#45;&gt;example_tab10</title>
<path fill="none" stroke="black" d="M62.59,-108.3C69.42,-116.7 77.76,-126.93 85.26,-136.14"/>
<polygon fill="black" stroke="black" points="82.54,-138.35 91.57,-143.9 87.97,-133.93 82.54,-138.35"/>
</g>
<!-- example_tab21 -->
<g id="node6" class="node">
<title>example_tab21</title>
<polygon fill="#76ee00" stroke="black" points="212,-108 115,-108 115,-72 212,-72 212,-108"/>
<text text-anchor="middle" x="163.5" y="-86.3" font-family="Times New Roman,serif" font-size="14.00">example.tab21</text>
</g>
<!-- example_tab21&#45;&gt;example_tab10 -->
<g id="edge5" class="edge">
<title>example_tab21&#45;&gt;example_tab10</title>
<path fill="none" stroke="#76ee00" d="M149.16,-108.3C142.21,-116.7 133.73,-126.93 126.1,-136.14"/>
<polygon fill="#76ee00" stroke="#76ee00" points="123.36,-133.96 119.67,-143.9 128.75,-138.43 123.36,-133.96"/>
</g>
<!-- example_tab23 -->
<g id="node7" class="node">
<title>example_tab23</title>
<polygon fill="none" stroke="black" points="384,-108 287,-108 287,-72 384,-72 384,-108"/>
<text text-anchor="middle" x="335.5" y="-86.3" font-family="Times New Roman,serif" font-size="14.00">example.tab23</text>
</g>
<!-- example_tab23&#45;&gt;example_tab12 -->
<g id="edge6" class="edge">
<title>example_tab23&#45;&gt;example_tab12</title>
<path fill="none" stroke="black" d="M335.5,-108.3C335.5,-116.02 335.5,-125.29 335.5,-133.89"/>
<polygon fill="black" stroke="black" points="332,-133.9 335.5,-143.9 339,-133.9 332,-133.9"/>
</g>
<!-- example_tab30 -->
<g id="node8" class="node">
<title>example_tab30</title>
<polygon fill="none" stroke="black" points="97,-36 0,-36 0,0 97,0 97,-36"/>
<text text-anchor="middle" x="48.5" y="-14.3" font-family="Times New Roman,serif" font-size="14.00">example.tab30</text>
</g>
<!-- example_tab30&#45;&gt;example_tab20 -->
<g id="edge7" class="edge">
<title>example_tab30&#45;&gt;example_tab20</title>
<path fill="none" stroke="black" d="M48.5,-36.3C48.5,-44.02 48.5,-53.29 48.5,-61.89"/>
<polygon fill="black" stroke="black" points="45,-61.9 48.5,-71.9 52,-61.9 45,-61.9"/>
</g>
<!-- example_tab31 -->
<g id="node9" class="node">
<title>example_tab31</title>
<polygon fill="#76ee00" stroke="black" points="212,-36 115,-36 115,0 212,0 212,-36"/>
<text text-anchor="middle" x="163.5" y="-14.3" font-family="Times New Roman,serif" font-size="14.00">example.tab31</text>
</g>
<!-- example_tab31&#45;&gt;example_tab21 -->
<g id="edge8" class="edge">
<title>example_tab31&#45;&gt;example_tab21</title>
<path fill="none" stroke="#76ee00" d="M163.5,-36.3C163.5,-44.02 163.5,-53.29 163.5,-61.89"/>
<polygon fill="#76ee00" stroke="#76ee00" points="160,-61.9 163.5,-71.9 167,-61.9 160,-61.9"/>
</g>
</g>
</svg>
