<?xml version="1.0" encoding="UTF-8" standalone="no"?>
<!DOCTYPE svg PUBLIC "-//W3C//DTD SVG 1.1//EN"
 "http://www.w3.org/Graphics/SVG/1.1/DTD/svg11.dtd">
<!-- Generated by graphviz version 3.0.0 (20220226.1711)
 -->
<!-- Title: G Pages: 1 -->
<svg width="517pt" height="260pt"
 viewBox="0.00 0.00 517.00 260.00" xmlns="http://www.w3.org/2000/svg" xmlns:xlink="http://www.w3.org/1999/xlink">
<g id="graph0" class="graph" transform="scale(1 1) rotate(0) translate(4 256)">
<title>G</title>
<polygon fill="white" stroke="transparent" points="-4,4 -4,-256 513,-256 513,4 -4,4"/>
<!-- example_tab1 -->
<g id="node1" class="node">
<title>example_tab1</title>
<polygon fill="#76ee00" stroke="black" points="351.5,-252 261.5,-252 261.5,-216 351.5,-216 351.5,-252"/>
<text text-anchor="middle" x="306.5" y="-230.3" font-family="Times New Roman,serif" font-size="14.00">example.tab1</text>
</g>
<!-- example_tab10 -->
<g id="node2" class="node">
<title>example_tab10</title>
<polygon fill="none" stroke="black" points="231,-180 134,-180 134,-144 231,-144 231,-180"/>
<text text-anchor="middle" x="182.5" y="-158.3" font-family="Times New Roman,serif" font-size="14.00">example.tab10</text>
</g>
<!-- example_tab10&#45;&gt;example_tab1 -->
<g id="edge1" class="edge">
<title>example_tab10&#45;&gt;example_tab1</title>
<path fill="none" stroke="black" d="M212.83,-180.12C229.2,-189.36 249.58,-200.87 267.15,-210.79"/>
<polygon fill="black" stroke="black" points="265.62,-213.94 276.05,-215.81 269.06,-207.85 265.62,-213.94"/>
</g>
<!-- example_tab11 -->
<g id="node3" class="node">
<title>example_tab11</title>
<polygon fill="none" stroke="black" points="394,-180 297,-180 297,-144 394,-144 394,-180"/>
<text text-anchor="middle" x="345.5" y="-158.3" font-family="Times New Roman,serif" font-size="14.00">example.tab11</text>
</g>
<!-- example_tab11&#45;&gt;example_tab1 -->
<g id="edge2" class="edge">
<title>example_tab11&#45;&gt;example_tab1</title>
<path fill="none" stroke="black" d="M335.86,-180.3C331.37,-188.36 325.94,-198.11 320.98,-207.02"/>
<polygon fill="black" stroke="black" points="317.84,-205.46 316.03,-215.9 323.95,-208.86 317.84,-205.46"/>
</g>
<!-- example_tab12 -->
<g id="node4" class="node">
<title>example_tab12</title>
<polygon fill="#76ee00" stroke="black" points="509,-180 412,-180 412,-144 509,-144 509,-180"/>
<text text-anchor="middle" x="460.5" y="-158.3" font-family="Times New Roman,serif" font-size="14.00">example.tab12</text>
</g>
<!-- example_tab12&#45;&gt;example_tab1 -->
<g id="edge3" class="edge">
<title>example_tab12&#45;&gt;example_tab1</title>
<path fill="none" stroke="#76ee00" d="M422.83,-180.12C401.87,-189.65 375.6,-201.59 353.32,-211.72"/>
<polygon fill="#76ee00" stroke="#76ee00" points="351.71,-208.61 344.05,-215.93 354.6,-214.98 351.71,-208.61"/>
</g>
<!-- example_tab20 -->
<g id="node5" class="node">
<title>example_tab20</title>
<polygon fill="none" stroke="black" points="97,-108 0,-108 0,-72 97,-72 97,-108"/>
<text text-anchor="middle" x="48.5" y="-86.3" font-family="Times New Roman,serif" font-size="14.00">example.tab20</text>
</g>
<!-- example_tab20&#45;&gt;example_tab10 -->
<g id="edge4" class="edge">
<title>example_tab20&#45;&gt;example_tab10</title>
<path fill="none" stroke="black" d="M81.28,-108.12C99.13,-117.45 121.4,-129.08 140.5,-139.06"/>
<polygon fill="black" stroke="black" points="139.11,-142.28 149.59,-143.81 142.35,-136.08 139.11,-142.28"/>
</g>
<!-- example_tab21 -->
<g id="node6" class="node">
<title>example_tab21</title>
<polygon fill="none" stroke="black" points="212,-108 115,-108 115,-72 212,-72 212,-108"/>
<text text-anchor="middle" x="163.5" y="-86.3" font-family="Times New Roman,serif" font-size="14.00">example.tab21</text>
</g>
<!-- example_tab21&#45;&gt;example_tab10 -->
<g id="edge5" class="edge">
<title>example_tab21&#45;&gt;example_tab10</title>
<path fill="none" stroke="black" d="M168.2,-108.3C170.31,-116.1 172.86,-125.49 175.22,-134.17"/>
<polygon fill="black" stroke="black" points="171.86,-135.16 177.86,-143.9 178.62,-133.33 171.86,-135.16"/>
</g>
<!-- example_tab22 -->
<g id="node7" class="node">
<title>example_tab22</title>
<polygon fill="#76ee00" stroke="black" points="327,-108 230,-108 230,-72 327,-72 327,-108"/>
<text text-anchor="middle" x="278.5" y="-86.3" font-family="Times New Roman,serif" font-size="14.00">example.tab22</text>
</g>
<!-- example_tab22&#45;&gt;example_tab1 -->
<g id="edge6" class="edge">
<title>example_tab22&#45;&gt;example_tab1</title>
<path fill="none" stroke="#76ee00" d="M279.33,-108.24C280.47,-126.31 283.01,-155.42 288.5,-180 290.43,-188.63 293.26,-197.82 296.11,-206.09"/>
<polygon fill="#76ee00" stroke="#76ee00" points="292.85,-207.38 299.53,-215.6 299.44,-205.01 292.85,-207.38"/>
</g>
<!-- example_tab22&#45;&gt;example_tab10 -->
<g id="edge7" class="edge">
<title>example_tab22&#45;&gt;example_tab10</title>
<path fill="none" stroke="black" d="M254.77,-108.3C242.56,-117.2 227.51,-128.18 214.32,-137.8"/>
<polygon fill="black" stroke="black" points="211.98,-135.18 205.96,-143.9 216.1,-140.83 211.98,-135.18"/>
</g>
<!-- example_tab23 -->
<g id="node8" class="node">
<title>example_tab23</title>
<polygon fill="none" stroke="black" points="509,-108 412,-108 412,-72 509,-72 509,-108"/>
<text text-anchor="middle" x="460.5" y="-86.3" font-family="Times New Roman,serif" font-size="14.00">example.tab23</text>
</g>
<!-- example_tab23&#45;&gt;example_tab12 -->
<g id="edge8" class="edge">
<title>example_tab23&#45;&gt;example_tab12</title>
<path fill="none" stroke="black" d="M460.5,-108.3C460.5,-116.02 460.5,-125.29 460.5,-133.89"/>
<polygon fill="black" stroke="black" points="457,-133.9 460.5,-143.9 464,-133.9 457,-133.9"/>
</g>
<!-- example_tab30 -->
<g id="node9" class="node">
<title>example_tab30</title>
<polygon fill="none" stroke="black" points="97,-36 0,-36 0,0 97,0 97,-36"/>
<text text-anchor="middle" x="48.5" y="-14.3" font-family="Times New Roman,serif" font-size="14.00">example.tab30</text>
</g>
<!-- example_tab30&#45;&gt;example_tab20 -->
<g id="edge9" class="edge">
<title>example_tab30&#45;&gt;example_tab20</title>
<path fill="none" stroke="black" d="M48.5,-36.3C48.5,-44.02 48.5,-53.29 48.5,-61.89"/>
<polygon fill="black" stroke="black" points="45,-61.9 48.5,-71.9 52,-61.9 45,-61.9"/>
</g>
<!-- example_tab31 -->
<g id="node10" class="node">
<title>example_tab31</title>
<polygon fill="#76ee00" stroke="black" points="269,-36 172,-36 172,0 269,0 269,-36"/>
<text text-anchor="middle" x="220.5" y="-14.3" font-family="Times New Roman,serif" font-size="14.00">example.tab31</text>
</g>
<!-- example_tab31&#45;&gt;example_tab21 -->
<g id="edge10" class="edge">
<title>example_tab31&#45;&gt;example_tab21</title>
<path fill="none" stroke="black" d="M206.41,-36.3C199.58,-44.7 191.24,-54.93 183.74,-64.14"/>
<polygon fill="black" stroke="black" points="181.03,-61.93 177.43,-71.9 186.46,-66.35 181.03,-61.93"/>
</g>
<!-- example_tab31&#45;&gt;example_tab22 -->
<g id="edge11" class="edge">
<title>example_tab31&#45;&gt;example_tab22</title>
<path fill="none" stroke="#76ee00" d="M234.84,-36.3C241.79,-44.7 250.27,-54.93 257.9,-64.14"/>
<polygon fill="#76ee00" stroke="#76ee00" points="255.25,-66.43 264.33,-71.9 260.64,-61.96 255.25,-66.43"/>
</g>
</g>
</svg>
