<?xml version="1.0" encoding="UTF-8" standalone="no"?>
<!DOCTYPE svg PUBLIC "-//W3C//DTD SVG 1.1//EN"
 "http://www.w3.org/Graphics/SVG/1.1/DTD/svg11.dtd">
<!-- Generated by graphviz version 3.0.0 (20220226.1711)
 -->
<!-- Title: G Pages: 1 -->
<svg width="522pt" height="332pt"
 viewBox="0.00 0.00 521.63 332.00" xmlns="http://www.w3.org/2000/svg" xmlns:xlink="http://www.w3.org/1999/xlink">
<g id="graph0" class="graph" transform="scale(1 1) rotate(0) translate(4 328)">
<title>G</title>
<polygon fill="white" stroke="transparent" points="-4,4 -4,-328 517.63,-328 517.63,4 -4,4"/>
<!-- example_tab1 -->
<g id="node1" class="node">
<title>example_tab1</title>
<polygon fill="none" stroke="black" points="361.5,-252 271.5,-252 271.5,-216 361.5,-216 361.5,-252"/>
<text text-anchor="middle" x="316.5" y="-230.3" font-family="Times New Roman,serif" font-size="14.00">example.tab1</text>
</g>
<!-- example_tab_users -->
<g id="node11" class="node">
<title>example_tab_users</title>
<polygon fill="#76ee00" stroke="black" points="376.5,-324 256.5,-324 256.5,-288 376.5,-288 376.5,-324"/>
<text text-anchor="middle" x="316.5" y="-302.3" font-family="Times New Roman,serif" font-size="14.00">example.tab_users</text>
</g>
<!-- example_tab1&#45;&gt;example_tab_users -->
<g id="edge1" class="edge">
<title>example_tab1&#45;&gt;example_tab_users</title>
<path fill="none" stroke="black" d="M316.5,-252.3C316.5,-260.02 316.5,-269.29 316.5,-277.89"/>
<polygon fill="black" stroke="black" points="313,-277.9 316.5,-287.9 320,-277.9 313,-277.9"/>
</g>
<!-- example_tab10 -->
<g id="node2" class="node">
<title>example_tab10</title>
<polygon fill="none" stroke="black" points="327,-180 230,-180 230,-144 327,-144 327,-180"/>
<text text-anchor="middle" x="278.5" y="-158.3" font-family="Times New Roman,serif" font-size="14.00">example.tab10</text>
</g>
<!-- example_tab10&#45;&gt;example_tab1 -->
<g id="edge2" class="edge">
<title>example_tab10&#45;&gt;example_tab1</title>
<path fill="none" stroke="black" d="M287.89,-180.3C292.26,-188.36 297.56,-198.11 302.4,-207.02"/>
<polygon fill="black" stroke="black" points="299.37,-208.78 307.21,-215.9 305.52,-205.44 299.37,-208.78"/>
</g>
<!-- example_tab10&#45;&gt;example_tab_users -->
<g id="edge3" class="edge">
<title>example_tab10&#45;&gt;example_tab_users</title>
<path fill="none" stroke="black" d="M233.98,-180.02C198.23,-195.08 155.24,-217.08 163.5,-233"/>
</g>
<!-- example_tab11 -->
<g id="node3" class="node">
<title>example_tab11</title>
<polygon fill="none" stroke="black" points="212,-180 115,-180 115,-144 212,-144 212,-180"/>
<text text-anchor="middle" x="163.5" y="-158.3" font-family="Times New Roman,serif" font-size="14.00">example.tab11</text>
</g>
<!-- example_tab11&#45;&gt;example_tab1 -->
<g id="edge4" class="edge">
<title>example_tab11&#45;&gt;example_tab1</title>
<path fill="none" stroke="black" d="M200.93,-180.12C221.75,-189.65 247.85,-201.59 269.98,-211.72"/>
<polygon fill="black" stroke="black" points="268.64,-214.95 279.19,-215.93 271.56,-208.59 268.64,-214.95"/>
</g>
<!-- example_tab11&#45;&gt;example_tab_users -->
<g id="edge5" class="edge">
<title>example_tab11&#45;&gt;example_tab_users</title>
<path fill="none" stroke="black" d="M159.29,-180.15C156.59,-195 155,-216.6 163.5,-233"/>
</g>
<!-- example_tab12 -->
<g id="node4" class="node">
<title>example_tab12</title>
<polygon fill="#76ee00" stroke="black" points="481,-180 384,-180 384,-144 481,-144 481,-180"/>
<text text-anchor="middle" x="432.5" y="-158.3" font-family="Times New Roman,serif" font-size="14.00">example.tab12</text>
</g>
<!-- example_tab12&#45;&gt;example_tab1 -->
<g id="edge6" class="edge">
<title>example_tab12&#45;&gt;example_tab1</title>
<path fill="none" stroke="black" d="M404.12,-180.12C388.96,-189.28 370.09,-200.66 353.76,-210.52"/>
<polygon fill="black" stroke="black" points="351.74,-207.65 344.99,-215.81 355.36,-213.64 351.74,-207.65"/>
</g>
<!-- example_tab12&#45;&gt;example_tab_users -->
<g id="edge7" class="edge">
<title>example_tab12&#45;&gt;example_tab_users</title>
<path fill="none" stroke="black" d="M436.95,-180.28C439.8,-195.21 441.48,-216.86 432.5,-233"/>
</g>
<!-- example_tab20 -->
<g id="node5" class="node">
<title>example_tab20</title>
<polygon fill="none" stroke="black" points="135,-108 38,-108 38,-72 135,-72 135,-108"/>
<text text-anchor="middle" x="86.5" y="-86.3" font-family="Times New Roman,serif" font-size="14.00">example.tab20</text>
</g>
<!-- example_tab20&#45;&gt;example_tab10 -->
<g id="edge8" class="edge">
<title>example_tab20&#45;&gt;example_tab10</title>
<path fill="none" stroke="black" d="M133.47,-108.12C160.18,-117.86 193.82,-130.13 221.97,-140.39"/>
<polygon fill="black" stroke="black" points="221.09,-143.79 231.68,-143.93 223.49,-137.22 221.09,-143.79"/>
</g>
<!-- example_tab20&#45;&gt;example_tab_users -->
<g id="edge9" class="edge">
<title>example_tab20&#45;&gt;example_tab_users</title>
<path fill="none" stroke="black" d="M83.53,-108.17C81.72,-122.65 80.72,-143.71 86.5,-161"/>
</g>
<!-- example_tab21 -->
<g id="node6" class="node">
<title>example_tab21</title>
<polygon fill="none" stroke="black" points="250,-108 153,-108 153,-72 250,-72 250,-108"/>
<text text-anchor="middle" x="201.5" y="-86.3" font-family="Times New Roman,serif" font-size="14.00">example.tab21</text>
</g>
<!-- example_tab21&#45;&gt;example_tab10 -->
<g id="edge10" class="edge">
<title>example_tab21&#45;&gt;example_tab10</title>
<path fill="none" stroke="black" d="M220.53,-108.3C230.04,-116.95 241.71,-127.55 252.07,-136.97"/>
<polygon fill="black" stroke="black" points="249.93,-139.76 259.69,-143.9 254.64,-134.58 249.93,-139.76"/>
</g>
<!-- example_tab21&#45;&gt;example_tab_users -->
<g id="edge11" class="edge">
<title>example_tab21&#45;&gt;example_tab_users</title>
<path fill="none" stroke="black" d="M156.85,-108.08C122.2,-122.77 80.89,-144.21 86.5,-161"/>
</g>
<!-- example_tab22 -->
<g id="node7" class="node">
<title>example_tab22</title>
<polygon fill="none" stroke="black" points="365,-108 268,-108 268,-72 365,-72 365,-108"/>
<text text-anchor="middle" x="316.5" y="-86.3" font-family="Times New Roman,serif" font-size="14.00">example.tab22</text>
</g>
<!-- example_tab22&#45;&gt;example_tab1 -->
<g id="edge12" class="edge">
<title>example_tab22&#45;&gt;example_tab1</title>
<path fill="none" stroke="black" d="M327.77,-108.21C336.39,-122 348.02,-142.12 355.5,-161"/>
<path fill="none" stroke="black" d="M355.5,-163C361.7,-178.64 353.34,-195.12 342.8,-208.16"/>
<polygon fill="black" stroke="black" points="340.05,-205.98 336.06,-215.79 345.3,-210.61 340.05,-205.98"/>
</g>
<!-- example_tab22&#45;&gt;example_tab10 -->
<g id="edge13" class="edge">
<title>example_tab22&#45;&gt;example_tab10</title>
<path fill="none" stroke="black" d="M307.11,-108.3C302.74,-116.36 297.44,-126.11 292.6,-135.02"/>
<polygon fill="black" stroke="black" points="289.48,-133.44 287.79,-143.9 295.63,-136.78 289.48,-133.44"/>
</g>
<!-- example_tab22&#45;&gt;example_tab_users -->
<g id="edge14" class="edge">
<title>example_tab22&#45;&gt;example_tab_users</title>
<path fill="none" stroke="black" d="M355.5,-163C372.54,-206 454.98,-192.58 432.5,-233"/>
<path fill="none" stroke="black" d="M432.5,-235C420.39,-256.76 398.46,-272.5 376.9,-283.47"/>
<polygon fill="black" stroke="black" points="375.21,-280.4 367.71,-287.88 378.24,-286.71 375.21,-280.4"/>
</g>
<!-- example_tab23 -->
<g id="node8" class="node">
<title>example_tab23</title>
<polygon fill="none" stroke="black" points="481,-108 384,-108 384,-72 481,-72 481,-108"/>
<text text-anchor="middle" x="432.5" y="-86.3" font-family="Times New Roman,serif" font-size="14.00">example.tab23</text>
</g>
<!-- example_tab23&#45;&gt;example_tab12 -->
<g id="edge15" class="edge">
<title>example_tab23&#45;&gt;example_tab12</title>
<path fill="none" stroke="black" d="M432.5,-108.3C432.5,-116.02 432.5,-125.29 432.5,-133.89"/>
<polygon fill="black" stroke="black" points="429,-133.9 432.5,-143.9 436,-133.9 429,-133.9"/>
</g>
<!-- example_tab23&#45;&gt;example_tab_users -->
<g id="edge16" class="edge">
<title>example_tab23&#45;&gt;example_tab_users</title>
<path fill="none" stroke="black" d="M509.5,-163C501.95,-208.63 454.98,-192.58 432.5,-233"/>
<path fill="none" stroke="black" d="M472.41,-108.07C493.11,-119.87 513.36,-137.65 509.5,-161"/>
</g>
<!-- example_tab30 -->
<g id="node9" class="node">
<title>example_tab30</title>
<polygon fill="none" stroke="black" points="97,-36 0,-36 0,0 97,0 97,-36"/>
<text text-anchor="middle" x="48.5" y="-14.3" font-family="Times New Roman,serif" font-size="14.00">example.tab30</text>
</g>
<!-- example_tab30&#45;&gt;example_tab20 -->
<g id="edge17" class="edge">
<title>example_tab30&#45;&gt;example_tab20</title>
<path fill="none" stroke="black" d="M57.89,-36.3C62.26,-44.36 67.56,-54.11 72.4,-63.02"/>
<polygon fill="black" stroke="black" points="69.37,-64.78 77.21,-71.9 75.52,-61.44 69.37,-64.78"/>
</g>
<!-- example_tab30&#45;&gt;example_tab_users -->
<g id="edge18" class="edge">
<title>example_tab30&#45;&gt;example_tab_users</title>
<path fill="none" stroke="black" d="M38.55,-36.01C29.18,-54.39 18.02,-84.23 28.5,-108 42.59,-139.95 75.44,-127.88 86.5,-161"/>
<path fill="none" stroke="black" d="M86.5,-163C99.49,-207.39 142.21,-191.94 163.5,-233"/>
<path fill="none" stroke="black" d="M163.5,-235C179.65,-266.14 214.31,-283.47 246.56,-293.09"/>
<polygon fill="black" stroke="black" points="245.9,-296.54 256.47,-295.83 247.77,-289.79 245.9,-296.54"/>
</g>
<!-- example_tab31 -->
<g id="node10" class="node">
<title>example_tab31</title>
<polygon fill="#76ee00" stroke="black" points="365,-36 268,-36 268,0 365,0 365,-36"/>
<text text-anchor="middle" x="316.5" y="-14.3" font-family="Times New Roman,serif" font-size="14.00">example.tab31</text>
</g>
<!-- example_tab31&#45;&gt;example_tab21 -->
<g id="edge19" class="edge">
<title>example_tab31&#45;&gt;example_tab21</title>
<path fill="none" stroke="black" d="M288.37,-36.12C273.33,-45.28 254.63,-56.66 238.44,-66.52"/>
<polygon fill="black" stroke="black" points="236.46,-63.62 229.74,-71.81 240.1,-69.6 236.46,-63.62"/>
</g>
<!-- example_tab31&#45;&gt;example_tab22 -->
<g id="edge20" class="edge">
<title>example_tab31&#45;&gt;example_tab22</title>
<path fill="none" stroke="black" d="M316.5,-36.3C316.5,-44.02 316.5,-53.29 316.5,-61.89"/>
<polygon fill="black" stroke="black" points="313,-61.9 316.5,-71.9 320,-61.9 313,-61.9"/>
</g>
<!-- example_tab31&#45;&gt;example_tab_users -->
<g id="edge21" class="edge">
<title>example_tab31&#45;&gt;example_tab_users</title>
<path fill="none" stroke="black" d="M365.23,-21.04C404.3,-25.35 457.69,-37.67 489.5,-72 517.05,-101.74 516.12,-121 509.5,-161"/>
</g>
</g>
</svg>
