<?xml version="1.0" encoding="UTF-8" standalone="no"?>
<!DOCTYPE svg PUBLIC "-//W3C//DTD SVG 1.1//EN"
 "http://www.w3.org/Graphics/SVG/1.1/DTD/svg11.dtd">
<!-- Generated by graphviz version 2.43.0 (0)
 -->
<!-- Title: G Pages: 1 -->
<svg width="627pt" height="362pt"
 viewBox="0.00 0.00 626.61 362.00" xmlns="http://www.w3.org/2000/svg" xmlns:xlink="http://www.w3.org/1999/xlink">
<g id="graph0" class="graph" transform="scale(1 1) rotate(0) translate(4 358)">
<title>G</title>
<polygon fill="white" stroke="transparent" points="-4,4 -4,-358 622.61,-358 622.61,4 -4,4"/>
<text text-anchor="middle" x="309.31" y="-334" font-family="Times,serif" font-weight="bold" font-size="20.00">Example tables</text>
<!-- example_tab1 -->
<g id="node1" class="node">
<title>example_tab1</title>
<polygon fill="none" stroke="black" points="441.5,-252 328.5,-252 328.5,-216 441.5,-216 441.5,-252"/>
<text text-anchor="middle" x="385" y="-230.3" font-family="Times,serif" font-size="14.00">example.tab1</text>
</g>
<!-- example_tab_users -->
<g id="node11" class="node">
<title>example_tab_users</title>
<polygon fill="none" stroke="black" points="460,-324 310,-324 310,-288 460,-288 460,-324"/>
<text text-anchor="middle" x="385" y="-302.3" font-family="Times,serif" font-size="14.00">example.tab_users</text>
</g>
<!-- example_tab1&#45;&gt;example_tab_users -->
<g id="edge1" class="edge">
<title>example_tab1&#45;&gt;example_tab_users</title>
<path fill="none" stroke="black" d="M385,-252.3C385,-260.02 385,-269.29 385,-277.89"/>
<polygon fill="black" stroke="black" points="381.5,-277.9 385,-287.9 388.5,-277.9 381.5,-277.9"/>
</g>
<!-- example_tab10 -->
<g id="node2" class="node">
<title>example_tab10</title>
<polygon fill="none" stroke="black" points="395,-180 273,-180 273,-144 395,-144 395,-180"/>
<text text-anchor="middle" x="334" y="-158.3" font-family="Times,serif" font-size="14.00">example.tab10</text>
</g>
<!-- example_tab10&#45;&gt;example_tab1 -->
<g id="edge2" class="edge">
<title>example_tab10&#45;&gt;example_tab1</title>
<path fill="none" stroke="black" d="M346.61,-180.3C352.6,-188.53 359.88,-198.52 366.48,-207.58"/>
<polygon fill="black" stroke="black" points="363.82,-209.87 372.54,-215.9 369.48,-205.75 363.82,-209.87"/>
</g>
<!-- example_tab10&#45;&gt;example_tab_users -->
<g id="edge3" class="edge">
<title>example_tab10&#45;&gt;example_tab_users</title>
<path fill="none" stroke="black" d="M276.09,-180.1C233.47,-194.35 184.49,-215.13 194,-233"/>
</g>
<!-- example_tab11 -->
<g id="node3" class="node">
<title>example_tab11</title>
<polygon fill="none" stroke="black" points="255,-180 133,-180 133,-144 255,-144 255,-180"/>
<text text-anchor="middle" x="194" y="-158.3" font-family="Times,serif" font-size="14.00">example.tab11</text>
</g>
<!-- example_tab11&#45;&gt;example_tab1 -->
<g id="edge4" class="edge">
<title>example_tab11&#45;&gt;example_tab1</title>
<path fill="none" stroke="black" d="M240.72,-180.12C267.3,-189.86 300.76,-202.13 328.77,-212.39"/>
<polygon fill="black" stroke="black" points="327.83,-215.78 338.43,-215.93 330.24,-209.2 327.83,-215.78"/>
</g>
<!-- example_tab11&#45;&gt;example_tab_users -->
<g id="edge5" class="edge">
<title>example_tab11&#45;&gt;example_tab_users</title>
<path fill="none" stroke="black" d="M189.7,-180.2C186.95,-195.07 185.32,-216.69 194,-233"/>
</g>
<!-- example_tab12 -->
<g id="node4" class="node">
<title>example_tab12</title>
<polygon fill="none" stroke="black" points="586,-180 464,-180 464,-144 586,-144 586,-180"/>
<text text-anchor="middle" x="525" y="-158.3" font-family="Times,serif" font-size="14.00">example.tab12</text>
</g>
<!-- example_tab12&#45;&gt;example_tab1 -->
<g id="edge6" class="edge">
<title>example_tab12&#45;&gt;example_tab1</title>
<path fill="none" stroke="black" d="M490.75,-180.12C471.94,-189.53 448.42,-201.29 428.33,-211.33"/>
<polygon fill="black" stroke="black" points="426.76,-208.21 419.38,-215.81 429.89,-214.47 426.76,-208.21"/>
</g>
<!-- example_tab12&#45;&gt;example_tab_users -->
<g id="edge7" class="edge">
<title>example_tab12&#45;&gt;example_tab_users</title>
<path fill="none" stroke="black" d="M529.7,-180.17C532.79,-195.22 534.69,-217.13 525,-233"/>
</g>
<!-- example_tab20 -->
<g id="node5" class="node">
<title>example_tab20</title>
<polygon fill="none" stroke="black" points="166,-108 44,-108 44,-72 166,-72 166,-108"/>
<text text-anchor="middle" x="105" y="-86.3" font-family="Times,serif" font-size="14.00">example.tab20</text>
</g>
<!-- example_tab20&#45;&gt;example_tab10 -->
<g id="edge8" class="edge">
<title>example_tab20&#45;&gt;example_tab10</title>
<path fill="none" stroke="black" d="M160.73,-108.03C193.14,-117.94 234.18,-130.49 268.18,-140.88"/>
<polygon fill="black" stroke="black" points="267.44,-144.31 278.02,-143.89 269.48,-137.62 267.44,-144.31"/>
</g>
<!-- example_tab20&#45;&gt;example_tab_users -->
<g id="edge9" class="edge">
<title>example_tab20&#45;&gt;example_tab_users</title>
<path fill="none" stroke="black" d="M101.97,-108.19C100.12,-122.68 99.1,-143.75 105,-161"/>
</g>
<!-- example_tab21 -->
<g id="node6" class="node">
<title>example_tab21</title>
<polygon fill="none" stroke="black" points="306,-108 184,-108 184,-72 306,-72 306,-108"/>
<text text-anchor="middle" x="245" y="-86.3" font-family="Times,serif" font-size="14.00">example.tab21</text>
</g>
<!-- example_tab21&#45;&gt;example_tab10 -->
<g id="edge10" class="edge">
<title>example_tab21&#45;&gt;example_tab10</title>
<path fill="none" stroke="black" d="M267,-108.3C278.21,-117.12 292,-127.97 304.15,-137.53"/>
<polygon fill="black" stroke="black" points="302.23,-140.46 312.25,-143.9 306.56,-134.96 302.23,-140.46"/>
</g>
<!-- example_tab21&#45;&gt;example_tab_users -->
<g id="edge11" class="edge">
<title>example_tab21&#45;&gt;example_tab_users</title>
<path fill="none" stroke="black" d="M186.54,-108.13C145.34,-121.96 98.56,-142.16 105,-161"/>
</g>
<!-- example_tab22 -->
<g id="node7" class="node">
<title>example_tab22</title>
<polygon fill="none" stroke="black" points="446,-108 324,-108 324,-72 446,-72 446,-108"/>
<text text-anchor="middle" x="385" y="-86.3" font-family="Times,serif" font-size="14.00">example.tab22</text>
</g>
<!-- example_tab22&#45;&gt;example_tab1 -->
<g id="edge12" class="edge">
<title>example_tab22&#45;&gt;example_tab1</title>
<path fill="none" stroke="black" d="M400.48,-108.21C411.84,-121.69 426.83,-141.38 436,-161"/>
<path fill="none" stroke="black" d="M436,-163C443.73,-179.55 432.64,-196.16 418.85,-209.04"/>
<polygon fill="black" stroke="black" points="416.3,-206.61 411.01,-215.79 420.87,-211.92 416.3,-206.61"/>
</g>
<!-- example_tab22&#45;&gt;example_tab10 -->
<g id="edge13" class="edge">
<title>example_tab22&#45;&gt;example_tab10</title>
<path fill="none" stroke="black" d="M372.39,-108.3C366.4,-116.53 359.12,-126.52 352.52,-135.58"/>
<polygon fill="black" stroke="black" points="349.52,-133.75 346.46,-143.9 355.18,-137.87 349.52,-133.75"/>
</g>
<!-- example_tab22&#45;&gt;example_tab_users -->
<g id="edge14" class="edge">
<title>example_tab22&#45;&gt;example_tab_users</title>
<path fill="none" stroke="black" d="M436,-163C457.31,-208.59 551.21,-190.04 525,-233"/>
<path fill="none" stroke="black" d="M525,-235C511.01,-257.93 486.94,-273.59 462.67,-284.18"/>
<polygon fill="black" stroke="black" points="461.3,-280.96 453.37,-287.99 463.95,-287.43 461.3,-280.96"/>
</g>
<!-- example_tab23 -->
<g id="node8" class="node">
<title>example_tab23</title>
<polygon fill="none" stroke="black" points="586,-108 464,-108 464,-72 586,-72 586,-108"/>
<text text-anchor="middle" x="525" y="-86.3" font-family="Times,serif" font-size="14.00">example.tab23</text>
</g>
<!-- example_tab23&#45;&gt;example_tab12 -->
<g id="edge15" class="edge">
<title>example_tab23&#45;&gt;example_tab12</title>
<path fill="none" stroke="black" d="M525,-108.3C525,-116.02 525,-125.29 525,-133.89"/>
<polygon fill="black" stroke="black" points="521.5,-133.9 525,-143.9 528.5,-133.9 521.5,-133.9"/>
</g>
<!-- example_tab23&#45;&gt;example_tab_users -->
<g id="edge16" class="edge">
<title>example_tab23&#45;&gt;example_tab_users</title>
<path fill="none" stroke="black" d="M574.03,-108.06C596.83,-119.38 618.14,-136.68 614,-161"/>
<path fill="none" stroke="black" d="M614,-163C605.56,-212.61 551.21,-190.04 525,-233"/>
</g>
<!-- example_tab30 -->
<g id="node9" class="node">
<title>example_tab30</title>
<polygon fill="none" stroke="black" points="122,-36 0,-36 0,0 122,0 122,-36"/>
<text text-anchor="middle" x="61" y="-14.3" font-family="Times,serif" font-size="14.00">example.tab30</text>
</g>
<!-- example_tab30&#45;&gt;example_tab20 -->
<g id="edge17" class="edge">
<title>example_tab30&#45;&gt;example_tab20</title>
<path fill="none" stroke="black" d="M71.88,-36.3C76.99,-44.44 83.2,-54.31 88.84,-63.3"/>
<polygon fill="black" stroke="black" points="85.96,-65.29 94.25,-71.9 91.89,-61.57 85.96,-65.29"/>
</g>
<!-- example_tab30&#45;&gt;example_tab_users -->
<g id="edge18" class="edge">
<title>example_tab30&#45;&gt;example_tab_users</title>
<path fill="none" stroke="black" d="M48.79,-36.06C37.22,-54.48 23.25,-84.36 35,-108 52.37,-142.94 92.38,-124.07 105,-161"/>
<path fill="none" stroke="black" d="M105,-163C119.53,-211.18 170.35,-188.58 194,-233"/>
<path fill="none" stroke="black" d="M194,-235C214.32,-273.16 258.87,-290.83 299.84,-298.88"/>
<polygon fill="black" stroke="black" points="299.43,-302.36 309.89,-300.68 300.66,-295.47 299.43,-302.36"/>
</g>
<!-- example_tab31 -->
<g id="node10" class="node">
<title>example_tab31</title>
<polygon fill="none" stroke="black" points="446,-36 324,-36 324,0 446,0 446,-36"/>
<text text-anchor="middle" x="385" y="-14.3" font-family="Times,serif" font-size="14.00">example.tab31</text>
</g>
<!-- example_tab31&#45;&gt;example_tab21 -->
<g id="edge19" class="edge">
<title>example_tab31&#45;&gt;example_tab21</title>
<path fill="none" stroke="black" d="M350.75,-36.12C331.94,-45.53 308.42,-57.29 288.33,-67.33"/>
<polygon fill="black" stroke="black" points="286.76,-64.21 279.38,-71.81 289.89,-70.47 286.76,-64.21"/>
</g>
<!-- example_tab31&#45;&gt;example_tab22 -->
<g id="edge20" class="edge">
<title>example_tab31&#45;&gt;example_tab22</title>
<path fill="none" stroke="black" d="M385,-36.3C385,-44.02 385,-53.29 385,-61.89"/>
<polygon fill="black" stroke="black" points="381.5,-61.9 385,-71.9 388.5,-61.9 381.5,-61.9"/>
</g>
<!-- example_tab31&#45;&gt;example_tab_users -->
<g id="edge21" class="edge">
<title>example_tab31&#45;&gt;example_tab_users</title>
<path fill="none" stroke="black" d="M446.26,-27.19C500.65,-35.72 574.58,-50.81 595,-72 623.07,-101.12 620.78,-121.13 614,-161"/>
</g>
</g>
</svg>
